<?xml version="1.0" encoding="UTF-8" standalone="no"?>
<svg
   width="210mm"
   height="297mm"
   viewBox="0 0 210 297"
   version="1.1"
   id="svg8"
   xmlns:xlink="http://www.w3.org/1999/xlink"
   xmlns="http://www.w3.org/2000/svg"
   xmlns:svg="http://www.w3.org/2000/svg"
   xmlns:rdf="http://www.w3.org/1999/02/22-rdf-syntax-ns#"
   xmlns:cc="http://creativecommons.org/ns#"
   xmlns:dc="http://purl.org/dc/elements/1.1/">
  <defs
     id="defs2" />
  <metadata
     id="metadata5">
    <rdf:RDF>
      <cc:Work
         rdf:about="">
        <dc:format>image/svg+xml</dc:format>
        <dc:type
           rdf:resource="http://purl.org/dc/dcmitype/StillImage" />
      </cc:Work>
    </rdf:RDF>
  </metadata>
  <g
     id="layer1">
    <path
       id="path85"
       style="fill:#faf8fd;stroke:none;stroke-width:1.01199;stroke-linecap:round;stroke-linejoin:round;paint-order:stroke markers fill;fill-opacity:1"
       d="m 139.7,32.814535 c -5.41419,0.02539 -10.788,0.531745 -16.11699,1.251438 -30.597724,4.132295 -72.605969,9.425224 -95.426512,14.354842 -47.684493,10.300646 -81.596037,56.007015 -81.59613,107.154185 1.1e-4,61.36917 49.7028543,110.51065 111.072027,110.51076 18.11305,0.17309 65.632065,-7.86465 99.715675,-13.04287 52.95915,-8.47468 93.47063,-53.76257 93.47073,-109.10956 C 250.81869,82.564159 201.06917,32.814645 139.7,32.814535 Z" />
    <circle
       style="fill:#f2dcf7;fill-opacity:1;stroke:none;stroke-width:3.4458;stroke-linecap:round;stroke-linejoin:round;paint-order:stroke markers fill"
       id="path847"
       cx="-17.63979"
       cy="70.158241"
       r="28.222931" />
    <circle
       style="fill:#f2dcf7;fill-opacity:1;stroke:none;stroke-width:3.41119;stroke-linecap:round;stroke-linejoin:round;paint-order:stroke markers fill"
       id="path847-9"
       cx="-26.860588"
       cy="89.936195"
       r="27.939451" />
    <circle
       style="fill:#f2dcf7;fill-opacity:1;stroke:none;stroke-width:4.03893;stroke-linecap:round;stroke-linejoin:round;paint-order:stroke markers fill"
       id="circle874"
       cx="255.26505"
       cy="94.715889"
       r="33.080917" />
    <circle
       style="fill:#f2dcf7;fill-opacity:1;stroke:none;stroke-width:3.99278;stroke-linecap:round;stroke-linejoin:round;paint-order:stroke markers fill"
       id="circle876"
       cx="244.39532"
       cy="118.03065"
       r="32.702946" />
    <circle
       style="fill:#f2dcf7;fill-opacity:1;stroke:none;stroke-width:3.84452;stroke-linecap:round;stroke-linejoin:round;paint-order:stroke markers fill"
       id="circle878"
       cx="191.64938"
       cy="228.91994"
       r="31.488621" />
    <circle
       style="fill:#f2dcf7;fill-opacity:1;stroke:none;stroke-width:3.72915;stroke-linecap:round;stroke-linejoin:round;paint-order:stroke markers fill"
       id="circle880"
       cx="181.73961"
       cy="246.82867"
       r="30.543684" />
    <circle
       style="fill:#f2dcf7;fill-opacity:1;stroke:none;stroke-width:4.34317;stroke-linecap:round;stroke-linejoin:round;paint-order:stroke markers fill"
       id="path847-5"
       cx="8.3440666"
       cy="224.1136"
       r="35.572845" />
    <circle
       style="fill:#f2dcf7;fill-opacity:1;stroke:none;stroke-width:4.48375;stroke-linecap:round;stroke-linejoin:round;paint-order:stroke markers fill"
       id="path847-9-0"
       cx="-2.4739857"
       cy="250.81299"
       r="36.724346" />
    <circle
       style="fill:#67388c;fill-opacity:1;stroke:none;stroke-width:0.189428;stroke-linecap:round;stroke-linejoin:round;stroke-miterlimit:4;stroke-dasharray:none;paint-order:stroke markers fill"
       id="path900"
       cx="-46.187248"
       cy="67.750175"
       r="7.0598226" />
    <circle
       style="fill:#ea5b25;fill-opacity:1;stroke:none;stroke-width:0.108372;stroke-linecap:round;stroke-linejoin:round;stroke-miterlimit:4;stroke-dasharray:none;paint-order:stroke markers fill"
       id="circle902"
       cx="-53.940586"
       cy="96.966606"
       r="4.0389476" />
    <circle
       style="fill:#e5d5ea;fill-opacity:1;stroke:none;stroke-width:0.108372;stroke-linecap:round;stroke-linejoin:round;stroke-miterlimit:4;stroke-dasharray:none;paint-order:stroke markers fill"
       id="circle904"
       cx="-8.1103077"
       cy="110.08814"
       r="4.0389476" />
    <circle
       style="fill:#e5d5ea;fill-opacity:1;stroke:none;stroke-width:0.061025;stroke-linecap:round;stroke-linejoin:round;stroke-miterlimit:4;stroke-dasharray:none;paint-order:stroke markers fill"
       id="circle906"
       cx="9.3017206"
       cy="94.699677"
       r="2.2743587" />
    <circle
       style="fill:#e5d5ea;fill-opacity:1;stroke:none;stroke-width:0.061025;stroke-linecap:round;stroke-linejoin:round;stroke-miterlimit:4;stroke-dasharray:none;paint-order:stroke markers fill"
       id="circle908"
       cx="13.160603"
       cy="94.699677"
       r="2.2743587" />
    <circle
       style="fill:#e5d5ea;fill-opacity:1;stroke:none;stroke-width:0.061025;stroke-linecap:round;stroke-linejoin:round;stroke-miterlimit:4;stroke-dasharray:none;paint-order:stroke markers fill"
       id="circle910"
       cx="7.5048103"
       cy="48.645531"
       r="2.2743587" />
    <circle
       style="fill:#e5d5ea;fill-opacity:1;stroke:none;stroke-width:0.061025;stroke-linecap:round;stroke-linejoin:round;stroke-miterlimit:4;stroke-dasharray:none;paint-order:stroke markers fill"
       id="circle912"
       cx="10.831274"
       cy="48.712082"
       r="2.2743587" />
    <circle
       style="fill:#e5d5ea;fill-opacity:1;stroke:none;stroke-width:0.061025;stroke-linecap:round;stroke-linejoin:round;stroke-miterlimit:4;stroke-dasharray:none;paint-order:stroke markers fill"
       id="circle914"
       cx="14.158886"
       cy="48.712082"
       r="2.2743587" />
    <circle
       style="fill:none;fill-opacity:1;stroke:#e41f21;stroke-width:6.069;stroke-linecap:round;stroke-linejoin:round;stroke-miterlimit:4;stroke-dasharray:none;paint-order:stroke markers fill;stroke-opacity:1"
       id="circle916"
       cx="-12.103442"
       cy="87.061066"
       r="19.53735" />
    <circle
       style="fill:#67388c;fill-opacity:1;stroke:none;stroke-width:0.219383;stroke-linecap:round;stroke-linejoin:round;stroke-miterlimit:4;stroke-dasharray:none;paint-order:stroke markers fill"
       id="circle918"
       cx="233.92786"
       cy="133.37721"
       r="8.1762333" />
    <circle
       style="fill:#ea5b25;fill-opacity:1;stroke:none;stroke-width:0.149608;stroke-linecap:round;stroke-linejoin:round;stroke-miterlimit:4;stroke-dasharray:none;paint-order:stroke markers fill"
       id="circle920"
       cx="251.81049"
       cy="140.90674"
       r="5.5757866" />
    <circle
       style="fill:#e5d5ea;fill-opacity:1;stroke:none;stroke-width:0.129672;stroke-linecap:round;stroke-linejoin:round;stroke-miterlimit:4;stroke-dasharray:none;paint-order:stroke markers fill"
       id="circle922"
       cx="266.30481"
       cy="141.84793"
       r="4.8328018" />
    <circle
       style="fill:#e5d5ea;fill-opacity:1;stroke:none;stroke-width:0.0730052;stroke-linecap:round;stroke-linejoin:round;stroke-miterlimit:4;stroke-dasharray:none;paint-order:stroke markers fill"
       id="circle924"
       cx="283.24301"
       cy="65.57473"
       r="2.7208524" />
    <circle
       style="fill:#e5d5ea;fill-opacity:1;stroke:none;stroke-width:0.0730052;stroke-linecap:round;stroke-linejoin:round;stroke-miterlimit:4;stroke-dasharray:none;paint-order:stroke markers fill"
       id="circle926"
       cx="287.2225"
       cy="65.654343"
       r="2.7208524" />
    <circle
       style="fill:#e5d5ea;fill-opacity:1;stroke:none;stroke-width:0.0730052;stroke-linecap:round;stroke-linejoin:round;stroke-miterlimit:4;stroke-dasharray:none;paint-order:stroke markers fill"
       id="circle928"
       cx="291.20343"
       cy="65.654343"
       r="2.7208524" />
    <circle
       style="fill:#ea5b25;fill-opacity:1;stroke:none;stroke-width:0.698668;stroke-linecap:round;stroke-linejoin:round;stroke-miterlimit:4;stroke-dasharray:none;paint-order:stroke markers fill"
       id="circle930"
       cx="275.81677"
       cy="108.07121"
       r="26.038799" />
    <circle
       style="fill:#ffffff;fill-opacity:1;stroke:none;stroke-width:0.0981074;stroke-linecap:round;stroke-linejoin:round;stroke-miterlimit:4;stroke-dasharray:none;paint-order:stroke markers fill"
       id="circle932"
       cx="275.81677"
       cy="108.07121"
       r="3.6563835" />
    <circle
       style="fill:#3342ab;fill-opacity:1;stroke:none;stroke-width:0.769151;stroke-linecap:round;stroke-linejoin:round;stroke-miterlimit:4;stroke-dasharray:none;paint-order:stroke markers fill"
       id="circle934"
       cx="31.107187"
       cy="239.83791"
       r="28.665648" />
    <circle
       style="fill:#59dd00;fill-opacity:1;stroke:none;stroke-width:0.638758;stroke-linecap:round;stroke-linejoin:round;stroke-miterlimit:4;stroke-dasharray:none;paint-order:stroke markers fill"
       id="circle936"
       cx="213.46031"
       cy="229.45576"
       r="23.805979" />
    <circle
       style="fill:#67388c;fill-opacity:1;stroke:none;stroke-width:0.247576;stroke-linecap:round;stroke-linejoin:round;stroke-miterlimit:4;stroke-dasharray:none;paint-order:stroke markers fill"
       id="circle938"
       cx="-28.390511"
       cy="222.40123"
       r="9.2269735" />
    <circle
       style="fill:#ea5b25;fill-opacity:1;stroke:none;stroke-width:0.1379;stroke-linecap:round;stroke-linejoin:round;stroke-miterlimit:4;stroke-dasharray:none;paint-order:stroke markers fill"
       id="circle940"
       cx="-38.345676"
       cy="260.17523"
       r="5.1394248" />
    <circle
       style="fill:#e5d5ea;fill-opacity:1;stroke:none;stroke-width:0.1379;stroke-linecap:round;stroke-linejoin:round;stroke-miterlimit:4;stroke-dasharray:none;paint-order:stroke markers fill"
       id="circle942"
       cx="20.384624"
       cy="277.3049"
       r="5.1394248" />
    <circle
       style="fill:#ea5b25;fill-opacity:1;stroke:none;stroke-width:0.116718;stroke-linecap:round;stroke-linejoin:round;stroke-miterlimit:4;stroke-dasharray:none;paint-order:stroke markers fill"
       id="circle944"
       cx="184.8577"
       cy="210.80977"
       r="4.3500037" />
    <circle
       style="fill:#67388c;fill-opacity:1;stroke:none;stroke-width:0.19646;stroke-linecap:round;stroke-linejoin:round;stroke-miterlimit:4;stroke-dasharray:none;paint-order:stroke markers fill"
       id="circle946"
       cx="161.51616"
       cy="224.92763"
       r="7.3219428" />
    <circle
       style="fill:#ffffff;fill-opacity:1;stroke:none;stroke-width:0.0648931;stroke-linecap:round;stroke-linejoin:round;stroke-miterlimit:4;stroke-dasharray:none;paint-order:stroke markers fill"
       id="circle948"
       cx="174.15422"
       cy="213.09721"
       r="2.4185197" />
    <circle
       style="fill:#ffffff;fill-opacity:1;stroke:none;stroke-width:0.0648931;stroke-linecap:round;stroke-linejoin:round;stroke-miterlimit:4;stroke-dasharray:none;paint-order:stroke markers fill"
       id="circle950"
       cx="177.69151"
       cy="213.16797"
       r="2.4185197" />
    <circle
       style="fill:#ffffff;fill-opacity:1;stroke:none;stroke-width:0.0648931;stroke-linecap:round;stroke-linejoin:round;stroke-miterlimit:4;stroke-dasharray:none;paint-order:stroke markers fill"
       id="circle952"
       cx="181.23009"
       cy="213.16797"
       r="2.4185197" />
    <circle
       style="fill:#e5d5ea;fill-opacity:1;stroke:none;stroke-width:0.0648931;stroke-linecap:round;stroke-linejoin:round;stroke-miterlimit:4;stroke-dasharray:none;paint-order:stroke markers fill"
       id="circle954"
       cx="213.27078"
       cy="261.10825"
       r="2.4185197" />
    <circle
       style="fill:#e5d5ea;fill-opacity:1;stroke:none;stroke-width:0.0648931;stroke-linecap:round;stroke-linejoin:round;stroke-miterlimit:4;stroke-dasharray:none;paint-order:stroke markers fill"
       id="circle956"
       cx="216.80807"
       cy="261.17902"
       r="2.4185197" />
    <circle
       style="fill:#e5d5ea;fill-opacity:1;stroke:none;stroke-width:0.107183;stroke-linecap:round;stroke-linejoin:round;stroke-miterlimit:4;stroke-dasharray:none;paint-order:stroke markers fill"
       id="circle958"
       cx="200.18132"
       cy="269.69769"
       r="3.9946284" />
    <path
       style="font-variation-settings:normal;opacity:1;vector-effect:none;fill:#ffffff;fill-opacity:1;stroke:none;stroke-width:2;stroke-linecap:round;stroke-linejoin:round;stroke-miterlimit:4;stroke-dasharray:none;stroke-dashoffset:0;stroke-opacity:1;stop-color:#000000;stop-opacity:1"
       d="m 217.22649,238.45665 4.52555,-23.35984 -22.4281,7.78662 z"
       id="path960" />
    <path
       style="fill:#ffffff;fill-opacity:1;stroke:none;stroke-width:6.069;stroke-linecap:round;stroke-linejoin:round;stroke-miterlimit:4;stroke-dasharray:none;paint-order:stroke markers fill"
       id="rect962"
       width="4.8471332"
       height="10.164858"
       x="273.46295"
       y="91.107262"
       d="m 273.65462,91.107262 h 2.80338 a 1.8520833,1.8520833 45 0 1 1.85208,1.852083 v 6.460691 a 1.8520833,1.8520833 135 0 1 -1.85208,1.852084 h -1.14297 a 1.8520833,1.8520833 45 0 1 -1.85208,-1.852084 v -8.121103 a 0.19167136,0.19167136 135 0 1 0.19167,-0.191671 z" />
    <path
       style="fill:#ffffff;fill-opacity:1;stroke:none;stroke-width:6.069;stroke-linecap:round;stroke-linejoin:round;stroke-miterlimit:4;stroke-dasharray:none;paint-order:stroke markers fill"
       id="use46"
       width="4.8471332"
       height="10.164858"
       x="273.46295"
       y="91.107262"
       d="m 273.65462,91.107262 h 2.80338 a 1.8520833,1.8520833 45 0 1 1.85208,1.852083 v 6.460691 a 1.8520833,1.8520833 135 0 1 -1.85208,1.852084 h -1.14297 a 1.8520833,1.8520833 45 0 1 -1.85208,-1.852084 v -8.121103 a 0.19167136,0.19167136 135 0 1 0.19167,-0.191671 z"
       transform="matrix(0,0,-0.70710678,0.70710678,357.11314,31.673634)" />
    <path
       style="fill:#ffffff;fill-opacity:1;stroke:none;stroke-width:6.069;stroke-linecap:round;stroke-linejoin:round;stroke-miterlimit:4;stroke-dasharray:none;paint-order:stroke markers fill"
       id="use47"
       width="4.8471332"
       height="10.164858"
       x="273.46295"
       y="91.107262"
       d="m 273.65462,91.107262 h 2.80338 a 1.8520833,1.8520833 45 0 1 1.85208,1.852083 v 6.460691 a 1.8520833,1.8520833 135 0 1 -1.85208,1.852084 h -1.14297 a 1.8520833,1.8520833 45 0 1 -1.85208,-1.852084 v -8.121103 a 0.19167136,0.19167136 135 0 1 0.19167,-0.191671 z"
       transform="matrix(0,0,-1,0,393.6339,108.14055)" />
    <path
       style="fill:#ffffff;fill-opacity:1;stroke:none;stroke-width:6.069;stroke-linecap:round;stroke-linejoin:round;stroke-miterlimit:4;stroke-dasharray:none;paint-order:stroke markers fill"
       id="use48"
       width="4.8471332"
       height="10.164858"
       x="273.46295"
       y="91.107262"
       d="m 273.65462,91.107262 h 2.80338 a 1.8520833,1.8520833 45 0 1 1.85208,1.852083 v 6.460691 a 1.8520833,1.8520833 135 0 1 -1.85208,1.852084 h -1.14297 a 1.8520833,1.8520833 45 0 1 -1.85208,-1.852084 v -8.121103 a 0.19167136,0.19167136 135 0 1 0.19167,-0.191671 z"
       transform="matrix(0,0,-0.70710678,-0.70710678,366.8074,184.60747)" />
    <path
       style="fill:#ffffff;fill-opacity:1;stroke:none;stroke-width:6.069;stroke-linecap:round;stroke-linejoin:round;stroke-miterlimit:4;stroke-dasharray:none;paint-order:stroke markers fill"
       id="use49"
       width="4.8471332"
       height="10.164858"
       x="273.46295"
       y="91.107262"
       d="m 273.65462,91.107262 h 2.80338 a 1.8520833,1.8520833 45 0 1 1.85208,1.852083 v 6.460691 a 1.8520833,1.8520833 135 0 1 -1.85208,1.852084 h -1.14297 a 1.8520833,1.8520833 45 0 1 -1.85208,-1.852084 v -8.121103 a 0.19167136,0.19167136 135 0 1 0.19167,-0.191671 z"
       transform="matrix(0,0,0,-1,295.18761,216.2811)" />
    <path
       style="fill:#ffffff;fill-opacity:1;stroke:none;stroke-width:6.069;stroke-linecap:round;stroke-linejoin:round;stroke-miterlimit:4;stroke-dasharray:none;paint-order:stroke markers fill"
       id="use50"
       width="4.8471332"
       height="10.164858"
       x="273.46295"
       y="91.107262"
       d="m 273.65462,91.107262 h 2.80338 a 1.8520833,1.8520833 45 0 1 1.85208,1.852083 v 6.460691 a 1.8520833,1.8520833 135 0 1 -1.85208,1.852084 h -1.14297 a 1.8520833,1.8520833 45 0 1 -1.85208,-1.852084 v -8.121103 a 0.19167136,0.19167136 135 0 1 0.19167,-0.191671 z"
       transform="matrix(0,0,0.70710678,-0.70710678,223.56782,184.60747)" />
    <path
       style="fill:#ffffff;fill-opacity:1;stroke:none;stroke-width:6.069;stroke-linecap:round;stroke-linejoin:round;stroke-miterlimit:4;stroke-dasharray:none;paint-order:stroke markers fill"
       id="use51"
       width="4.8471332"
       height="10.164858"
       x="273.46295"
       y="91.107262"
       d="m 273.65462,91.107262 h 2.80338 a 1.8520833,1.8520833 45 0 1 1.85208,1.852083 v 6.460691 a 1.8520833,1.8520833 135 0 1 -1.85208,1.852084 h -1.14297 a 1.8520833,1.8520833 45 0 1 -1.85208,-1.852084 v -8.121103 a 0.19167136,0.19167136 135 0 1 0.19167,-0.191671 z"
       transform="matrix(0,0,1,0,196.74132,108.14055)" />
    <use
       x="0"
       y="0"
       xlink:href="#rect962"
       id="use73" />
    <use
       x="0"
       y="0"
       xlink:href="#rect962"
       transform="rotate(45,275.88651,108.02305)"
       id="use74" />
    <use
       x="0"
       y="0"
       xlink:href="#rect962"
       transform="rotate(90,275.88651,108.02305)"
       id="use75" />
    <use
       x="0"
       y="0"
       xlink:href="#rect962"
       transform="rotate(135,275.88651,108.02305)"
       id="use76" />
    <use
       x="0"
       y="0"
       xlink:href="#rect962"
       transform="rotate(180,275.88651,108.02305)"
       id="use77" />
    <use
       x="0"
       y="0"
       xlink:href="#rect962"
       transform="rotate(-135,275.88651,108.02305)"
       id="use78" />
    <use
       x="0"
       y="0"
       xlink:href="#rect962"
       transform="rotate(-90,275.88651,108.02305)"
       id="use79" />
    <use
       x="0"
       y="0"
       xlink:href="#rect962"
       transform="rotate(-45,275.88651,108.02305)"
       id="use80" />
    <path
       style="font-variation-settings:normal;opacity:0.62;fill:#ffffff;fill-opacity:1;stroke:#a67fc9;stroke-width:0.577;stroke-linecap:round;stroke-linejoin:round;stroke-miterlimit:4;stroke-dasharray:none;stroke-dashoffset:0;stroke-opacity:0.71470588;stop-color:#000000;stop-opacity:1"
       d="m 239.56704,52.571914 -20.6733,27.782668 V 52.66546 h -14.87355 v 62.95534 h 14.87355 V 88.212307 l 20.39266,27.502033 h 17.77343 L 231.98995,83.815723 257.50417,52.47837 Z"
       id="path80" />
    <path
       style="font-variation-settings:normal;opacity:0.62;vector-effect:none;fill:#ffffff;fill-opacity:1;stroke:#a67fc9;stroke-width:0.57707563;stroke-linecap:round;stroke-linejoin:round;stroke-miterlimit:4;stroke-dasharray:none;stroke-dashoffset:0;stroke-opacity:0.71470588;stop-color:#000000;stop-opacity:1"
       d="m -23.152222,60.850589 h 12.628485 c 0,-11.178548 -8.41899,-16.931524 -19.784627,-16.931524 -11.365638,0 -19.363677,6.127152 -19.363677,15.294499 0,9.167344 6.969054,12.30108 13.610701,14.73323 6.641647,2.432153 13.517156,3.975635 13.517156,9.073801 0,5.098166 -5.3788,5.425572 -7.436774,5.425572 -2.057977,0 -7.76418,-1.028988 -8.185129,-8.606078 h -12.815575 c 0,12.441396 9.354433,18.9895 20.953931,18.9895 11.599497,0 20.3458925,-6.080382 20.3458925,-16.136398 0,-10.056016 -6.9222805,-13.096208 -12.8623455,-15.294498 -5.940066,-2.198293 -14.171968,-4.162724 -14.171968,-8.980257 0,-4.30304 4.349813,-4.723988 6.688421,-4.723988 2.338609,0 6.875509,1.590252 6.875509,7.156141 z"
       id="path81" />
    <path
       style="font-variation-settings:normal;fill:#ffffff;fill-opacity:1;stroke:#a67fc9;stroke-width:0.577;stroke-linecap:round;stroke-linejoin:round;stroke-miterlimit:4;stroke-dasharray:none;stroke-dashoffset:0;stroke-opacity:0.71470588;stop-color:#000000;opacity:0.62"
       d="m 193.76859,245.08997 h 13.47628 c 0,-12.42441 -8.98418,-18.81856 -21.11284,-18.81856 -12.12866,0 -20.66364,6.81002 -20.66364,16.99908 0,10.18905 7.43692,13.67204 14.52445,16.37526 7.08752,2.70322 14.42461,4.41873 14.42461,10.0851 0,5.66635 -5.73991,6.03026 -7.93603,6.03026 -2.19614,0 -8.28541,-1.14367 -8.73462,-9.56524 h -13.67594 c 0,13.828 9.98244,21.10589 22.36064,21.10589 12.37821,0 21.71179,-6.75804 21.71179,-17.93482 0,-11.17677 -7.38699,-14.55578 -13.72584,-16.99908 -6.33884,-2.44329 -15.12338,-4.62665 -15.12338,-9.98111 0,-4.78262 4.64183,-5.25049 7.13743,-5.25049 2.49561,0 7.33709,1.7675 7.33709,7.95371 z"
       id="path81-2" />
    <path
       id="path82"
       style="font-variation-settings:normal;opacity:0.62;fill:#ffffff;fill-opacity:1;stroke:#a67fc9;stroke-width:0.577;stroke-linecap:round;stroke-linejoin:round;stroke-miterlimit:4;stroke-dasharray:none;stroke-dashoffset:0;stroke-opacity:0.71470588;stop-color:#000000;stop-opacity:1"
       d="M 32.308622,244.05694 V 196.91098 H 15.844511 v 47.23949 c 0,7.10936 -5.705995,10.10326 -11.7574219,10.10326 -6.051427,0 -11.7579387,-2.9939 -11.7579387,-10.10326 V 196.91098 H -24.134444 v 47.14596 c 0,14.77999 11.038411,24.41504 28.2215331,24.41504 17.1831219,0 28.2215329,-9.63505 28.2215329,-24.41504 z" />
    <circle
       style="fill:#ffffff;fill-opacity:1;stroke:none;stroke-width:0.0781844;stroke-linecap:round;stroke-linejoin:round;stroke-miterlimit:4;stroke-dasharray:none;paint-order:stroke markers fill"
       id="circle83"
       cx="0.50539166"
       cy="210.97903"
       r="2.9138765" />
    <circle
       style="fill:#ffffff;fill-opacity:1;stroke:none;stroke-width:0.0781844;stroke-linecap:round;stroke-linejoin:round;stroke-miterlimit:4;stroke-dasharray:none;paint-order:stroke markers fill"
       id="circle84"
       cx="4.7671995"
       cy="211.06429"
       r="2.9138765" />
    <circle
       style="fill:#ffffff;fill-opacity:1;stroke:none;stroke-width:0.0781844;stroke-linecap:round;stroke-linejoin:round;stroke-miterlimit:4;stroke-dasharray:none;paint-order:stroke markers fill"
       id="circle85"
       cx="9.0305424"
       cy="211.06429"
       r="2.9138765" />
    <circle
       style="fill:#ea5b25;fill-opacity:1;stroke:none;stroke-width:0.116718;stroke-linecap:round;stroke-linejoin:round;stroke-miterlimit:4;stroke-dasharray:none;paint-order:stroke markers fill"
       id="circle86"
       cx="156.15041"
       cy="262.13889"
       r="4.3500037" />
  </g>
</svg>
